<svg xmlns="http://www.w3.org/2000/svg" viewBox="0 0 512 512">
    <path d="M463.7 48.3c-64.3-64.3-169-64.3-233.3 0 -43.9 43.9-59.2 108.7-40.2 167.5L4.4 401.5c-2.8 2.8-4.4 6.6-4.4 10.6V497c0 8.3 6.7 15 15 15h84.9c4 0 7.8-1.6 10.6-4.4l21.2-21.2c3.2-3.2 4.8-7.8 4.3-12.3l-2.6-22.8 31.6-3c7.2-0.7 12.8-6.3 13.5-13.5l3-31.6 22.8 2.7c4.2 0.6 8.5-0.8 11.7-3.7 3.2-2.9 5-6.9 5-11.2V363h27.4c4 0 7.8-1.6 10.6-4.4l38.5-38c58.7 19 122.4 4.9 166.3-39C528.1 217.3 528.1 112.6 463.7 48.3zM421.3 154.3c-17.5 17.5-46.1 17.5-63.6 0s-17.5-46.1 0-63.6 46.1-17.5 63.6 0S438.9 136.8 421.3 154.3z"/>
</svg>
